<svg width="811" height="249" viewBox="0 0 811 249" fill="none" xmlns="http://www.w3.org/2000/svg">
<path d="M16.3743 70.4819C11.3014 70.4819 7.62713 68.8103 5.33074 65.467C1.51038 59.3864 0.863211 48.3118 5.70651 43.861C11.4682 38.5663 30.2569 38.6582 46.0604 36.9237C63.5989 34.9987 72.7194 33.4133 90.9861 32.1386C116.121 30.8222 143.427 30.7386 167.894 30.3625C177.79 30.3625 184.387 32.1595 187.685 35.7744C191.234 39.1177 193.009 42.9834 193.009 47.3506C193.009 52.7625 191.234 60.473 187.685 70.5028C180.525 90.0401 169.648 112.482 159.899 131.079C155.076 140.336 151.402 147.148 148.855 151.536C148.104 152.831 146.955 153.73 145.432 154.231C136.851 157.47 121.194 149.718 121.445 139.563C121.445 138.789 122.969 135.571 126.017 129.909C136.997 108.93 151.82 81.3894 160.275 58.9058C150.129 58.9058 138.835 59.4282 126.392 60.4521C91.0488 62.6043 51.1751 67.8282 16.3743 70.4819ZM44.5573 122.157C39.6096 111.437 50.8619 105.231 59.7761 105.189C67.563 105.189 71.1954 111.333 73.8676 117.915C80.9446 143.324 75.4333 171.742 61.6758 194.309C56.8534 202.291 50.8828 209.354 43.7849 215.539C35.5178 222.476 24.9962 228.933 14.0988 230.583C5.99878 230.771 -0.243232 223.186 0.00728327 215.142C0.00728327 209.228 3.43099 204.986 10.2784 202.416C15.1008 200.619 19.798 197.652 24.3699 193.536C41.8016 177.404 54.0977 145.142 44.5573 122.157Z" fill="#BC2739"/>
<path d="M299.478 66.7625C290.48 67.0759 286.618 59.4073 286.534 51.7177C286.597 43.3595 289.812 39.8491 297.954 38.2192L336.094 33.9565L332.963 27.1657C331.147 23.5508 328.934 17.9088 329.185 13.9177C328.767 6.01923 341.397 -0.10316 347.827 0.00131737C359.539 0.293855 366.678 24.9088 368.453 33.9565C375.676 33.8521 409.892 33.8312 418.431 33.5804C425.529 33.3924 431.082 40.8521 430.998 47.4759C431.249 69.3118 403.942 65.2162 384.924 65.2162C391.417 84.8371 393.838 93.5506 398.619 112.837C403.713 133.419 403.003 149.613 403.003 164.637C414.757 163.383 439.789 162.189 463.148 158.849C470.747 157.763 478.033 155.38 482.938 163.091C484.963 166.685 485.986 172.64 485.986 176.757C485.986 179.577 485.36 180.079 484.087 182.377C482.813 184.425 480.913 185.721 478.367 186.243C469.974 187.831 459.849 189.022 449.432 189.712C435.716 190.945 419.746 192.386 405.279 193.18C405.279 200.389 405.153 207.327 404.903 214.013C404.632 225.046 403.817 235.661 397.68 243.727C393.484 249.745 382.461 249.64 376.741 244.876C373.693 242.828 372.169 239.986 372.169 236.392C372.169 232.798 372.419 227.386 372.941 220.177C373.693 212.718 374.089 204.736 374.089 196.252C362.42 197.025 350.75 197.924 339.059 198.948C327.64 199.721 317.097 200.494 307.452 201.267C293.925 202.333 279.207 203.649 268.998 203.963C256.723 204.631 249.291 187.539 257.579 179.264C259.854 177.216 264.948 175.545 272.798 174.249C280.919 172.703 292.839 171.428 308.58 170.383C324.32 169.36 345.635 167.939 372.545 166.142C371.021 151.995 371.209 135.446 366.449 115.115C361.814 95.264 355.927 81.661 348.954 65.9476C332.608 65.7804 313.11 66.7207 299.478 66.7625Z" fill="#BC2739"/>
<path d="M676.754 102.577C668.32 99.255 668.883 88.9744 674.082 82.8938C678.236 77.1267 686.211 76.8968 692.745 79.4252C702.139 84.064 715.312 94.1565 723.955 101.345C742.305 115.971 756.794 135.237 766.605 157.303C771.929 168.628 775.875 180.831 778.401 193.954V195.876C778.401 200.515 776.626 204.109 773.077 206.679C766.167 211.589 754.101 212.216 752.514 202.437C749.466 188.542 745.27 176.464 739.946 166.163C730.427 147.127 717.484 131.183 701.492 119.482C694.394 114.342 684.75 106.171 676.754 102.577ZM594.105 112.168C593.792 104.521 600.973 101.031 607.445 100.968C612.998 100.968 621.223 107.154 620.764 113.694C620.764 119.357 619.741 125.646 617.716 132.604C612.705 152.789 591.662 186.536 568.99 188.562C557.717 189.607 550.64 174.019 559.847 167.73C579.053 156.174 591.558 133.691 594.105 112.168ZM733.475 67.4103C719.863 63.1267 727.609 43.5476 739.571 43.8819C746.836 44.1327 754.038 48.3953 760.134 53.5356C763.933 56.3565 767.503 59.9715 770.802 64.3386C775.081 69.7924 780.864 76.6252 781.073 84.0222C781.281 90.9595 773.745 97.3118 766.981 97.1446C763.182 97.1446 760.384 95.7237 758.61 92.9028C755.061 86.7386 751.241 81.7028 747.19 77.858C743.391 73.9924 738.819 70.5237 733.475 67.4312V67.4103ZM763.933 41.1655C750.865 36.1506 754.977 15.3386 768.881 15.6939C781.365 16.5715 792.492 26.455 800.488 36.1506C804.621 41.6879 809.924 48.667 810.007 55.8342C810.279 63.9207 803.264 69.2909 795.916 69.3327C792.116 69.3327 789.319 67.9118 787.544 65.0909C780.76 53.5983 774.518 47.7685 763.933 41.1655Z" fill="#BC2739"/>
<path d="M74.0358 39.6H108.592C120.605 39.6 129.368 42.4267 134.88 48.08C140.392 53.592 143.148 62.1427 143.148 73.732V82.848C143.148 98.2533 138.06 108.005 127.884 112.104V112.528C133.537 114.224 137.494 117.687 139.756 122.916C142.158 128.145 143.36 135.141 143.36 143.904V169.98C143.36 174.22 143.501 177.683 143.784 180.368C144.066 182.912 144.773 185.456 145.904 188H122.16C121.312 185.597 120.746 183.336 120.464 181.216C120.181 179.096 120.04 175.28 120.04 169.768V142.632C120.04 135.848 118.909 131.113 116.648 128.428C114.528 125.743 110.782 124.4 105.412 124.4H97.3558V188H74.0358V39.6ZM105.836 103.2C110.5 103.2 113.962 101.999 116.224 99.596C118.626 97.1933 119.828 93.1653 119.828 87.512V76.064C119.828 70.6933 118.838 66.8067 116.86 64.404C115.022 62.0013 112.054 60.8 107.956 60.8H97.3558V103.2H105.836ZM159.54 39.6H223.14V60.8H182.86V100.02H214.872V121.22H182.86V166.8H223.14V188H159.54V39.6ZM267.285 190.12C255.979 190.12 247.428 186.94 241.633 180.58C235.839 174.079 232.941 164.821 232.941 152.808V144.328H254.989V154.504C254.989 164.115 259.017 168.92 267.073 168.92C271.031 168.92 273.999 167.789 275.977 165.528C278.097 163.125 279.157 159.309 279.157 154.08C279.157 147.861 277.744 142.42 274.917 137.756C272.091 132.951 266.861 127.227 259.229 120.584C249.619 112.104 242.905 104.472 239.089 97.688C235.273 90.7627 233.365 82.9893 233.365 74.368C233.365 62.6373 236.333 53.592 242.269 47.232C248.205 40.7307 256.827 37.48 268.133 37.48C279.299 37.48 287.708 40.7307 293.361 47.232C299.156 53.592 302.053 62.7787 302.053 74.792V80.94H280.005V73.308C280.005 68.22 279.016 64.5453 277.037 62.284C275.059 59.8813 272.161 58.68 268.345 58.68C260.572 58.68 256.685 63.4147 256.685 72.884C256.685 78.2547 258.099 83.272 260.925 87.936C263.893 92.6 269.193 98.2533 276.825 104.896C286.577 113.376 293.291 121.079 296.965 128.004C300.64 134.929 302.477 143.056 302.477 152.384C302.477 164.539 299.439 173.867 293.361 180.368C287.425 186.869 278.733 190.12 267.285 190.12ZM315.848 39.6H339.168V188H315.848V39.6ZM356.633 39.6H392.249C403.839 39.6 412.531 42.7093 418.325 48.928C424.12 55.1467 427.017 64.2627 427.017 76.276V151.324C427.017 163.337 424.12 172.453 418.325 178.672C412.531 184.891 403.839 188 392.249 188H356.633V39.6ZM391.825 166.8C395.641 166.8 398.539 165.669 400.517 163.408C402.637 161.147 403.697 157.472 403.697 152.384V75.216C403.697 70.128 402.637 66.4533 400.517 64.192C398.539 61.9307 395.641 60.8 391.825 60.8H379.953V166.8H391.825ZM442.758 39.6H506.358V60.8H466.078V100.02H498.09V121.22H466.078V166.8H506.358V188H442.758V39.6ZM519.774 39.6H549.03L571.714 128.428H572.138V39.6H592.914V188H568.958L540.974 79.668H540.55V188H519.774V39.6ZM628.479 60.8H604.099V39.6H676.179V60.8H651.799V188H628.479V60.8ZM717.785 190.12C706.479 190.12 697.928 186.94 692.133 180.58C686.339 174.079 683.441 164.821 683.441 152.808V144.328H705.489V154.504C705.489 164.115 709.517 168.92 717.573 168.92C721.531 168.92 724.499 167.789 726.477 165.528C728.597 163.125 729.657 159.309 729.657 154.08C729.657 147.861 728.244 142.42 725.417 137.756C722.591 132.951 717.361 127.227 709.729 120.584C700.119 112.104 693.405 104.472 689.589 97.688C685.773 90.7627 683.865 82.9893 683.865 74.368C683.865 62.6373 686.833 53.592 692.769 47.232C698.705 40.7307 707.327 37.48 718.633 37.48C729.799 37.48 738.208 40.7307 743.861 47.232C749.656 53.592 752.553 62.7787 752.553 74.792V80.94H730.505V73.308C730.505 68.22 729.516 64.5453 727.537 62.284C725.559 59.8813 722.661 58.68 718.845 58.68C711.072 58.68 707.185 63.4147 707.185 72.884C707.185 78.2547 708.599 83.272 711.425 87.936C714.393 92.6 719.693 98.2533 727.325 104.896C737.077 113.376 743.791 121.079 747.465 128.004C751.14 134.929 752.977 143.056 752.977 152.384C752.977 164.539 749.939 173.867 743.861 180.368C737.925 186.869 729.233 190.12 717.785 190.12Z" fill="#F3F3EC"/>
</svg>
